# xmcd CD database file generated by Grip 3.0.5
# 
# Track frame offsets:
#       150
#       18242
#       45785
# 
# Disc length: 840 seconds
# 
# Revision: 1
# Processed by: cddbd v1.4PL0 Copyright (c) Steve Scherf et al.
# Submitted via: Grip 3.0.5
# 
DISCID=12034603
DTITLE=The Clint Boon Experience! - White No Sugar
DYEAR=1999
DGENRE=Pop/Funk
TTITLE0=White No Sugar - Full Strength Bascombe Blend
TTITLE1=Not Enough Purple, Too Much Grey - Live
TTITLE2=You Can't Keep A Good Man Down - Live
EXTD=
EXTT0=Recorded Live In Hamburg, 23/02/92.
EXTT1=Recorded Live In Hamburg, 23/02/92.
EXTT2=Recorded Live In Hamburg, 23/02/92.
PLAYORDER=
